<?xml version="1.0" standalone="no"?><!DOCTYPE svg PUBLIC "-//W3C//DTD SVG 1.1//EN" "http://www.w3.org/Graphics/SVG/1.1/DTD/svg11.dtd"><svg t="1577024402671" class="icon" viewBox="0 0 1024 1024" version="1.1" xmlns="http://www.w3.org/2000/svg" p-id="2978" xmlns:xlink="http://www.w3.org/1999/xlink" width="200" height="200"><defs><style type="text/css"></style></defs><path d="M816.952281 614.064456l-45.118858-45.118857L895.99028 447.98866a223.99433 223.99433 0 0 0-316.791981-316.791981l-124.156857 120.956938-45.118858-45.438849 122.556898-122.236906a287.99271 287.99271 0 0 1 407.029697 407.029697zM288.00567 1023.974081a287.99271 287.99271 0 0 1-203.514849-491.507559l122.556898-122.556898 45.118858 45.118858-122.556898 122.556898A223.99433 223.99433 0 0 0 448.00162 895.977321l122.556898-122.556898 45.118858 45.118858-122.556898 122.556898A285.752767 285.752767 0 0 1 288.00567 1023.974081zM137.257486 182.555379L182.50434 137.276525l255.897523 255.897523-45.246855 45.246854zM585.214147 630.544039l45.246854-45.246854 255.897523 255.897522-45.246855 45.246855z" fill="#ffffff" p-id="2979"></path></svg>