<?xml version="1.0" standalone="no"?><!DOCTYPE svg PUBLIC "-//W3C//DTD SVG 1.1//EN" "http://www.w3.org/Graphics/SVG/1.1/DTD/svg11.dtd"><svg t="1577287475437" class="icon" viewBox="0 0 1130 1024" version="1.1" xmlns="http://www.w3.org/2000/svg" p-id="2830" xmlns:xlink="http://www.w3.org/1999/xlink" width="220.703125" height="200"><defs><style type="text/css"></style></defs><path d="M258.024309 818.975371h432.512115c75.352677 0 136.512913-61.058131 136.512913-136.512912V659.795393c0-25.117559-20.42078-45.538339-45.538339-45.538338H462.84473c-25.219663 0-45.538339-20.42078-45.538339-45.538339V455.077076c0-25.219663 20.42078-45.538339 45.538339-45.538338h523.282481c25.117559 0 45.538339 20.42078 45.538339 45.538338v261.692293c0 169.69668-137.636055 307.230631-307.230631 307.230631H53.203889c-25.117559 0-45.538339-20.42078-45.538339-45.538339V341.231229C7.66555 152.849536 160.515086 0 348.998883 0h637.128328c25.219663 0 45.538339 20.42078 45.538339 45.538339l-0.102104 113.641639c0 25.219663-20.42078 45.538339-45.538339 45.538339H348.998883c-75.352677 0-136.512913 61.058131-136.512913 136.512912v432.307908c0 25.015455 20.42078 45.436235 45.538339 45.436234z" p-id="2831"></path></svg>