<?xml version="1.0" standalone="no"?><!DOCTYPE svg PUBLIC "-//W3C//DTD SVG 1.1//EN" "http://www.w3.org/Graphics/SVG/1.1/DTD/svg11.dtd"><svg t="1577436949881" class="icon" viewBox="0 0 1024 1024" version="1.1" xmlns="http://www.w3.org/2000/svg" p-id="2214" xmlns:xlink="http://www.w3.org/1999/xlink" width="200" height="200"><defs><style type="text/css"></style></defs><path d="M781.0048 575.7952a470.0672 470.0672 0 0 0-727.296 394.6496v2.4576a44.0832 44.0832 0 1 0 88.1664 0 16.4352 16.4352 0 0 0 0-2.4576 382.464 382.464 0 0 1 382.0032-382.8736 377.7024 377.7024 0 0 1 136.1408 25.088 271.7184 271.7184 0 0 1 120.9856-36.864zM860.5696 849.92l76.032-76.032a44.1344 44.1344 0 0 0-62.464-62.464l-76.032 76.032L721.92 711.68a44.1344 44.1344 0 0 0-62.464 62.464l76.2368 75.776-76.032 76.032a44.1344 44.1344 0 0 0 62.464 62.464l76.032-76.032 76.032 76.032a44.1344 44.1344 0 0 0 62.464-62.464z" p-id="2215"></path><path d="M523.8784 3.328a274.8928 274.8928 0 1 0 274.2784 274.8928A274.5856 274.5856 0 0 0 523.8784 3.328z m0 461.3632a186.4704 186.4704 0 1 1 186.112-186.4704 186.3168 186.3168 0 0 1-186.112 186.4704z" p-id="2216"></path></svg>