<?xml version="1.0" standalone="no"?><!DOCTYPE svg PUBLIC "-//W3C//DTD SVG 1.1//EN" "http://www.w3.org/Graphics/SVG/1.1/DTD/svg11.dtd"><svg t="1577002207269" class="icon" viewBox="0 0 1024 1024" version="1.1" xmlns="http://www.w3.org/2000/svg" p-id="2681" xmlns:xlink="http://www.w3.org/1999/xlink" width="200" height="200"><defs><style type="text/css"></style></defs><path d="M827.4 112.2H196.2c-31.1 0.1-56.3 25.2-56.4 56.3v169h743.9v-169c0-31.1-25.2-56.2-56.3-56.3zM432.3 258.5H248.4v-75.6h184l-0.1 75.6z m193.7 0c-13.8 0.7-26.9-6.1-34.2-17.8-7.3-11.7-7.6-26.5-0.9-38.6 6.8-12 19.6-19.5 33.4-19.3 20.5 0.2 37.1 16.6 37.5 37 0.4 20.5-15.4 37.6-35.8 38.7z m109.1 0c-20.9 0.4-38.2-16.1-38.6-37-0.4-20.9 16.1-38.2 37-38.6 20.9-0.4 38.2 16.1 38.6 37 0.5 20.9-16.1 38.2-37 38.6zM139.9 625.3h743.9V400.1H139.9v225.2z m595.2-150.4c20.9-0.5 38.2 16.1 38.7 37s-16.1 38.2-37 38.7-38.2-16.1-38.7-37c-0.5-21 16.1-38.3 37-38.7z m-109.1 0c15.4-0.3 29.5 8.7 35.7 22.8 6.1 14.1 3.1 30.6-7.7 41.6s-27.2 14.4-41.5 8.6c-14.3-5.8-23.6-19.7-23.6-35.2 0-20.5 16.5-37.4 37.1-37.8z m-377.6 0h184v75.6h-184v-75.6z m-52.2 210.6h-56.4v169c0.2 31.1 25.3 56.2 56.4 56.4h631.2c31.1-0.1 56.2-25.3 56.3-56.4v-169H196.2z m236.1 155.8H248.4v-75.7h184l-0.1 75.7z m193.7 0c-15.4 0.3-29.4-8.7-35.5-22.8-6.1-14.1-3-30.5 7.7-41.5 10.8-11 27.1-14.3 41.3-8.5 14.2 5.8 23.5 19.6 23.5 35 0 20.6-16.4 37.4-37 37.8z m109.1 0c-13.7 0.3-26.4-6.8-33.3-18.7-6.9-11.8-6.8-26.4 0.1-38.2 6.9-11.8 19.6-19 33.3-18.8 20.3 0.8 36.4 17.5 36.4 37.8-0.1 20.4-16.2 37.1-36.5 37.9z m0 0" p-id="2682"></path></svg>