<?xml version="1.0" standalone="no"?><!DOCTYPE svg PUBLIC "-//W3C//DTD SVG 1.1//EN" "http://www.w3.org/Graphics/SVG/1.1/DTD/svg11.dtd"><svg t="1577694168570" class="icon" viewBox="0 0 1024 1024" version="1.1" xmlns="http://www.w3.org/2000/svg" p-id="2668" xmlns:xlink="http://www.w3.org/1999/xlink" width="200" height="200"><defs><style type="text/css"></style></defs><path d="M196.864 966.656h630.272a82.432 82.432 0 0 0 86.784-76.8l2.304-573.696a117.76 117.76 0 0 0-40.448-87.552l-132.096-130.304a168.704 168.704 0 0 0-111.36-40.96h-435.2a82.432 82.432 0 0 0-86.784 76.8v755.2a82.432 82.432 0 0 0 86.528 77.312zM640 902.656H384V665.6a14.848 14.848 0 0 1 14.848-14.848h226.816A15.104 15.104 0 0 1 640 665.6z m0-780.544v144.896a14.848 14.848 0 0 1-15.104 13.824h-226.048a14.592 14.592 0 0 1-14.848-13.824V121.344h248.32z m-465.92 12.288c0-5.376 8.96-13.056 22.784-13.056h123.136v145.664a78.592 78.592 0 0 0 78.848 76.8h226.816a78.848 78.848 0 0 0 79.104-76.8V149.76l125.952 124.16a53.504 53.504 0 0 1 19.2 39.424v576.256c0 5.376-8.96 13.056-22.784 13.056h-122.368V665.6a79.104 79.104 0 0 0-79.104-78.848h-226.816A78.848 78.848 0 0 0 320 665.6v238.336H196.864c-13.824 0-22.784-7.68-22.784-13.056z" p-id="2669"></path><path d="M522.752 156.416h64v87.296h-64zM431.872 698.624h161.28v64h-161.28zM431.872 798.72h161.28v64h-161.28z" p-id="2670"></path></svg>